<?xml version="1.0" encoding="UTF-8"?>
<!DOCTYPE svg PUBLIC "-//W3C//DTD SVG 1.1//EN" "http://www.w3.org/Graphics/SVG/1.1/DTD/svg11.dtd">
<!-- Creator: CorelDRAW -->
<svg xmlns="http://www.w3.org/2000/svg" xml:space="preserve" width="8.5in" height="11in" version="1.1" style="shape-rendering:geometricPrecision; text-rendering:geometricPrecision; image-rendering:optimizeQuality; fill-rule:evenodd; clip-rule:evenodd"
viewBox="0 0 8500 11000"
 xmlns:xlink="http://www.w3.org/1999/xlink"
 xmlns:xodm="http://www.corel.com/coreldraw/odm/2003">
 <defs>
  <style type="text/css">
   <![CDATA[
    .str0 {stroke:#2B2A29;stroke-width:6.94;stroke-miterlimit:2.61313}
    .fil0 {fill:#2B2A29;fill-rule:nonzero}
   ]]>
  </style>
 </defs>
 <g id="Layer_x0020_1">
  <metadata id="CorelCorpID_0Corel-Layer"/>
  <path class="fil0 str0" d="M6504.96 3846.82c-88.06,-26.21 -172.49,-38.74 -264.93,-27.65 7.74,4.61 10.21,6.92 13.08,7.7 59.91,16 119.99,31.26 175.17,61.14 6.24,3.37 18.14,2.69 24.15,-1.17 17.41,-11.17 33.14,-24.93 52.53,-40.02zm-730.25 152.14c-71.13,59.28 -125.82,126.35 -169.07,209.21 23.15,-1.82 40.63,-3.75 58.15,-4.39 16.87,-0.61 24.87,-9.71 31.25,-24.57 25.15,-58.68 51.51,-116.85 79.67,-180.25zm349.15 -129.58c58.76,43.44 111.68,82.58 165.79,122.6 29.4,-17.36 58.48,-34.53 93.06,-54.94 -84.82,-37.11 -166.68,-59.64 -258.85,-67.65zm-256.33 293.39c8.43,-71.17 16.35,-138.17 24.85,-209.93 -54.4,72.89 -101.14,144.96 -129.36,233.56 38.21,-8.64 71.32,-16.13 104.51,-23.63zm359.4 -134.89c-60.23,-51.06 -121.73,-90.19 -185.07,-126.61 -1.9,1.57 -3.81,3.13 -5.7,4.69 25.57,55.43 51.14,110.86 78.22,169.56 37.74,-15.97 72.07,-30.5 112.54,-47.64zm-290.94 115.57c41.28,-15.03 78.56,-28.6 117.37,-42.74 -27.64,-60.17 -53.15,-115.72 -81.5,-177.44 -20.82,75.22 -35.74,143.52 -35.87,220.18zm-5042.89 3039.18c-1.47,-25.26 2.96,-46.81 16.59,-66.99 5.92,-8.76 9.79,-20.35 10.47,-30.92 1.55,-24.29 0.92,-48.76 0.36,-73.14 -0.14,-5.94 -3.44,-11.8 -5.99,-19.9 -11.06,7.24 -19.69,12.86 -28.3,18.5 9.94,-28.42 29.7,-51.02 35.51,-76.74 6.27,-27.78 2.76,-58.82 -4.06,-88.17 -17.4,0 -31.48,0 -48.41,0 0,32.91 0,64.22 0,96.46 10.74,0.69 19.43,1.25 36.11,2.32 -34.61,30.15 -36.12,64.49 -36.99,101.18 7.74,-4.26 12.89,-7.1 21.89,-12.06 -4.09,20.64 -7.38,37.17 -10.9,54.93 10.39,0 17.22,0 23.74,0 0.48,2.89 1.19,4.25 0.78,5.03 -8.72,16.25 -17.19,32.65 -26.46,48.58 -17.91,30.74 -16.17,41.35 12.4,68.07 37.81,-9.5 44.58,-24.39 26.16,-61.15 -7.65,11.36 -14.77,21.93 -22.89,33.99zm5882.67 -3192.63c-2.01,-5.4 -2.18,-8.19 -3.64,-9.37 -53.87,-43.33 -111.53,-80.61 -175.39,-107.57 -5.46,-2.3 -14.56,-3.19 -18.74,-0.21 -23.8,16.97 -47.96,33.85 -66.57,55.63 56.2,43.54 110.31,85.47 167.06,129.46 31.53,-22.03 64.78,-45.24 97.28,-67.93zm-1264.24 510.76c40.7,-6.67 74.31,-11.61 107.7,-17.81 25.28,-4.69 24.87,-6.59 27.46,-32.69 5.53,-56.04 12.43,-111.94 18.58,-167.93 0.42,-3.89 -0.8,-7.94 -1.43,-13.39 -25,2.58 -47.92,6.25 -70.93,6.93 -19.91,0.6 -28.93,10.7 -36.01,27.79 -18.33,44.31 -28.97,90.49 -36.83,137.47 -2.87,17.15 -4.96,34.44 -8.53,59.63zm-4746.83 1848c0,-16.94 -0.96,-33.97 0.5,-50.78 0.53,-6.15 6.8,-11.82 10.46,-17.71 4.22,5.43 11.5,10.54 12.1,16.35 1.68,16.14 0.58,32.56 0.58,50.25 74.2,0 143.45,0 216.14,0 0,-18.37 -0.06,-34.78 0.02,-51.18 0.05,-10.3 4.43,-18.8 15.45,-16.04 4.96,1.25 10.72,10.3 11.23,16.24 1.49,17.39 0.53,34.98 0.53,53.63 7.43,0 14.44,0 22.84,0 -2.14,-24.64 -4.08,-47.18 -6.03,-69.63 29.56,-2.13 31.7,-0.94 32.45,20.53 0.43,12.18 -0.73,24.4 -1.39,36.6 -0.46,8.41 0.41,17.19 11.02,15.67 4.18,-0.6 10.12,-8.78 10.36,-13.75 1.11,-23.03 0.49,-46.14 0.49,-71.96 -139.14,0 -275.98,0 -414.84,0 2.96,30 -2.12,59.36 7.14,95.47 18.77,-31.32 1.32,-59.4 12.94,-83.02 37.63,-6.14 38.06,-5.44 41.66,29.49 1.41,13.65 -1.87,28.96 16.35,39.85zm4974 -2088.53c-16.61,69.24 -30.78,133.65 -26.56,205.04 60.52,-16.04 117.74,-31.22 173.75,-46.07 -6.74,-64.5 -13.11,-125.56 -19.67,-188.42 -43.93,10.15 -85.63,19.78 -127.53,29.44zm707.04 -290.14c-36.44,24.46 -74.32,42.44 -105.86,69.18 41.89,49.56 81.78,96.76 121.47,143.72 63.54,-24.29 134.35,-65.24 155.42,-90.83 -51.98,-46.36 -105.89,-89.8 -171.03,-122.07zm-509.82 244.09c-4.07,61.65 6.25,120.3 18.29,181.32 68.03,-23.04 132,-42.43 194.4,-69.92 -24.01,-55.49 -46.69,-107.92 -71.06,-164.21 -48.96,15.44 -95.09,32.22 -141.64,52.8zm205.61 -77.9c23.82,55.6 42.78,111.86 71.37,168.33 64.21,-29.72 125.18,-57.94 190.92,-88.37 -43.62,-50.52 -84.53,-97.88 -124.69,-144.38 -46.79,21.91 -89.83,42.06 -137.6,64.42zm702.67 169.22c49.72,-21.36 98.86,-37 145.97,-63.02 -42.65,-82.71 -92,-154.81 -163.14,-212.58 -34.98,29.44 -72.54,50.74 -104.46,81.4 48.14,60.97 92.26,120.53 121.63,194.2zm-5880.5 2517.39c0.87,-16.39 2.08,-29.47 2.17,-42.56 0.31,-46.61 0.24,-93.22 0.32,-139.83 0.03,-14.33 -0.85,-28 11.63,-39.85 5.43,-5.15 4.35,-17.18 6.25,-26.15 -48.1,-8.74 -153.47,-7.89 -179.65,1.33 1.15,6.93 -0.26,17.64 4.06,21.02 17.19,13.4 14.01,31.22 13.98,48.68 -0.06,47.72 -0.3,95.44 -0.15,143.17 0.03,10.79 1.39,21.58 2.27,34.19 46.73,0 90.67,0 139.11,0zm5538.67 -2583.44c30.81,57.43 59.96,111.76 89.72,167.25 64.07,-25.4 129.1,-51.19 196.29,-77.83 -38.83,-65.61 -72.04,-130.15 -121.5,-183.37 -56.81,32.44 -110.44,63.08 -164.52,93.96zm-533.35 224c13.71,61.94 31.2,119.56 55.36,178.39 74.56,-30.75 146.64,-60.48 221.75,-91.46 -23.93,-54.68 -47.62,-108.85 -71.87,-164.25 -69.21,26.08 -135.19,50.94 -205.24,77.32zm336.61 62.93c77.11,-31.54 151.11,-59.26 223.36,-95.28 -29.87,-55.48 -53.85,-110.07 -88.61,-158.82 -68.9,30.78 -135.1,60.32 -203.57,90.9 23.38,55.43 45.17,107.11 68.82,163.2zm-406.78 -43.02c-60.61,15.06 -122.31,30.38 -185.42,46.04 9.33,75.26 28.03,144.97 56.37,214.3 66.88,-26.69 131.2,-52.36 194.08,-77.47 -22.43,-63.09 -43.18,-121.42 -65.04,-182.88zm-4821.51 1889.17c-33.44,0 -63.12,0.03 -92.81,-0.02 -31.07,-0.04 -62.13,-0.15 -93.2,-0.25 -29.96,-0.09 -59.96,-1.13 -89.87,-0.03 -30.34,1.11 -61.15,-5.72 -93.67,1.8 0,12.65 -0.31,22.47 0.09,32.26 0.4,9.67 1.53,19.32 2.44,30.26 22.76,1.63 43.27,3.08 62.14,4.43 16.44,37.06 -8.83,69.46 -4.02,105.2 84.2,0 166.5,0 251.67,0 -3.77,-35.97 -15.22,-69.26 -5.46,-104.79 21.43,-1.67 41.72,-3.25 62.67,-4.89 0,-22.06 0,-40.61 0,-64zm-31.15 -303.07c-4.29,-0.14 -8.57,-0.28 -12.86,-0.4 -0.55,10.21 -1.53,20.43 -1.56,30.65 -0.13,35.53 0.34,71.04 0.01,106.56 -0.12,12.47 -1.44,26.3 -18.61,25.75 -16.52,-0.53 -13.91,-14.21 -13.91,-24.98 -0.01,-36.64 0.43,-73.26 0.26,-109.89 -0.06,-11.71 -1.52,-23.4 -2.29,-34.28 -52.13,-7.48 -185.77,-5.54 -209.78,3.28 0,42.35 0.07,85.54 -0.06,128.74 -0.02,8.83 0.38,17.96 -1.72,26.37 -0.98,3.9 -7.35,8.68 -11.52,8.94 -4.39,0.28 -11.61,-3.36 -13.11,-7.1 -2.78,-6.9 -2.98,-15.11 -3.04,-22.79 -0.23,-34.4 0.15,-68.82 -0.09,-103.22 -0.06,-9.03 -1.56,-18.04 -2.4,-27.07 -2.61,0.14 -5.22,0.29 -7.83,0.43 -7.6,52.6 -3.01,106.18 -5.67,159.71 -9.84,1.07 -16.33,2.46 -22.79,2.36 -34.09,-0.46 -40.43,-6.1 -41.43,-41.1 -0.79,-27.69 0.68,-55.46 0.79,-83.19 0.04,-6.85 -1.31,-13.71 -2.02,-20.56 -2.32,-0.68 -4.65,-1.35 -6.97,-2.03 -5.15,8.63 -14.36,17.07 -14.74,25.9 -1.56,36.54 -0.97,73.21 -0.06,109.81 0.38,15.61 9.45,23.35 26.08,23.4 22.15,0.07 44.3,2.75 66.46,2.86 89.89,0.47 179.78,0.56 269.67,0.4 28.85,-0.04 57.73,-0.6 86.53,-2.15 24.68,-1.33 31.98,-7.59 33.26,-32.24 1.61,-30.97 1.22,-62.14 -0.09,-93.15 -0.63,-14.83 -4.74,-29.93 -24.99,-37.94 -0.56,9.74 -1.22,15.87 -1.23,22.01 -0.03,31.07 1.08,62.18 -0.12,93.21 -1,25.6 -9.81,33.39 -35.09,34.32 -8.38,0.31 -16.86,-1.86 -28.27,-3.25 -0.07,-54.42 0.94,-106.97 -0.83,-159.36zm4602.85 1192.13c1.7,-227.79 30.97,-381.56 109.26,-522.76 88.56,-159.72 222.07,-259.46 403.6,-291.46 100.39,-17.68 199.24,-13.11 294.97,24.17 94.03,36.61 163.67,100.33 206.71,192.07 13.74,29.25 33.64,39.29 67.68,32.32 57.22,-11.69 104.61,-65.01 109.5,-123.43 3.98,-47.53 -8.36,-90.36 -38.61,-127.36 -46.24,-56.57 -107.74,-91.96 -173.4,-120.15 -99.61,-42.8 -205.74,-55.03 -312.58,-57.33 -96.83,-2.1 -192.07,11.04 -286.18,37.25 -163.94,45.65 -297.96,134.53 -405.63,265.1 -94.57,114.69 -154.57,246.35 -182.98,391.14 -33.96,172.94 -35.65,346.07 10.43,518.31 34.83,130.25 87.7,250.14 173.26,356.22 118.32,146.67 268.14,239.81 450.57,283.09 106.98,25.38 215.42,30 324.42,23.2 92.36,-5.78 182.63,-23.29 269.25,-57.27 47.85,-18.76 92.92,-42.13 133.1,-74.55 25.75,-20.8 45.03,-46.92 56.4,-77.2 23.94,-63.75 4.38,-116.61 -62.75,-161.42 -35.96,-24 -50.68,-20.94 -73.49,14.54 -66.93,104.09 -166.97,155.75 -283.94,181 -90.67,19.57 -181.22,13.69 -271.36,-3.18 -57.11,-10.68 -112.15,-29.81 -162.08,-58.98 -112.02,-65.48 -198.04,-157.46 -255.47,-273.5 -67.99,-137.35 -102.43,-283.4 -100.67,-369.8zm-4173.2 -58.17c0.97,21.07 2.28,42.13 2.84,63.2 4.94,185.57 59.32,355.17 160.34,511 93.37,144.03 221.85,243.17 379.57,306.44 86.32,34.63 176.81,50.78 269.29,56.63 146.5,9.26 290.89,-0.21 429.75,-52.36 60.69,-22.79 117.28,-53.71 163.58,-100.07 80.81,-80.87 43.42,-182.19 -37,-225.37 -28.17,-15.13 -41.74,-11.52 -60.24,12.63 -10.8,14.08 -20.29,29.18 -31.24,43.15 -65.06,83.07 -154.9,123.56 -254.54,146.35 -82.32,18.82 -164.71,17.65 -248.02,3.32 -81.31,-14 -156.29,-42.72 -225.18,-86.81 -95.07,-60.85 -161.22,-148.14 -214.98,-245.35 -60.78,-109.9 -84.25,-230.61 -97.94,-353.69 -10.41,-93.42 -2.96,-185.93 12.35,-278.5 17.24,-104.21 48.71,-202.85 104.21,-292.94 44.87,-72.85 103.75,-133.68 174.24,-181.21 105.83,-71.36 225.29,-96.11 351.67,-91.67 121.11,4.25 225.11,48.18 307.82,137.14 22.2,23.86 39.93,53 54.82,82.21 17.32,34 36.48,46.64 74.3,38.86 55.5,-11.42 105.39,-68.76 108.02,-125.49 3.08,-66.97 -24.09,-120.51 -74.74,-163.08 -78.61,-66.07 -171.11,-102.82 -270.31,-121.74 -111.87,-21.32 -224.6,-22.68 -338.11,-8.01 -165.6,21.37 -312.04,86.53 -440.24,190.8 -93.52,76.07 -160.06,175 -209.94,284.25 -65.2,142.8 -91.22,293.93 -90.34,450.33zm3128.7 -891.19c4.13,61.1 8.68,120.72 12.03,180.4 3.31,58.76 5.99,117.58 7.85,176.42 1.89,59.96 2.54,119.94 3.59,179.93 1,58.86 1.9,117.73 2.68,176.59 0.79,59.99 1.47,119.97 2.04,179.96 0.57,59.98 0.96,119.97 1.4,179.96 0.44,58.87 1.54,117.76 1.11,176.63 -0.43,59.06 2.85,118.21 -2.26,177.78 -6.67,-3.43 -10.65,-7.07 -13.14,-11.54 -52.82,-95.08 -103.22,-191.6 -158.69,-285.11 -90.61,-152.76 -182.93,-304.57 -277.49,-454.92 -86.86,-138.11 -175.61,-275.14 -267.46,-409.97 -51.11,-75.06 -109.24,-145.47 -166.11,-216.44 -30.67,-38.28 -73.25,-57.82 -122.54,-58.08 -43.18,-0.24 -86.37,2.44 -129.56,4.21 -7.35,0.3 -14.63,2.41 -23.28,3.93 6.11,50.32 14.89,98.5 17.29,147 7.87,159.72 18,319.53 18.93,479.36 1.78,302.12 -2.4,604.28 -3.71,906.42 -0.26,62.19 1.43,124.4 1.97,186.61 0.32,37.03 17.32,59.32 53.82,69.73 53.78,15.33 107.28,15.26 161.36,4.12 4.08,-0.85 7.79,-3.6 13.1,-6.14 -4.63,-41.18 -11.59,-81.73 -13.38,-122.53 -7.03,-159.78 -15.04,-319.57 -17.8,-479.44 -3.78,-218.79 -3.03,-437.67 -4.44,-656.5 -0.39,-61.1 -1.68,-122.18 -2.29,-183.28 -0.1,-10.18 -4.89,-22.35 11.83,-30.53 6.97,9.78 14.18,19.11 20.6,28.97 25.99,39.99 51.75,80.13 77.57,120.22 72.04,111.86 145.09,223.11 215.82,335.8 66.07,105.28 130.25,211.74 194.17,318.33 74.2,123.75 147.71,247.93 220.54,372.48 47.67,81.5 96.32,162.07 152.76,238.1 43.94,59.19 100.11,81.57 170.97,72.46 19.74,-2.54 39.5,-6.4 58.63,-11.85 24.46,-6.97 25.25,-10.79 23.98,-35.44 -7.4,-144.14 -17.93,-288.22 -20.57,-432.46 -3.59,-195.47 -2.53,-391.06 -0.62,-586.57 1.54,-157.69 7.4,-315.35 11.06,-473.01 1.47,-63.31 2.11,-126.63 3.3,-189.93 0.64,-34.44 -15.58,-56.67 -48.01,-67.4 -8.43,-2.79 -16.82,-5.98 -25.47,-7.74 -51.82,-10.48 -103.52,-9.98 -161.57,3.47zm3588.22 -1020.85c0,137.78 0,275.56 0,413.33 -1.75,10.72 -4.67,21.41 -5.08,32.17 -6.27,160.28 -28.89,318.57 -61.3,475.33 -177.58,859.26 -607.51,1569.01 -1273.61,2136.69 -314.36,267.92 -665.43,477.15 -1047.64,633.73 -390.46,159.98 -796.04,256.92 -1216.75,290.34 -40.82,3.23 -81.53,7.79 -122.29,11.74 -135.56,0 -271.11,0 -406.67,0 -10.86,-1.76 -21.67,-4.5 -32.6,-5.13 -374.94,-21.53 -740.11,-92.98 -1094.96,-215.96 -525.69,-182.18 -994.96,-459.52 -1402.58,-838.81 -502.46,-467.51 -855.29,-1029.18 -1053.01,-1687.11 -79.94,-266 -127.35,-537.96 -145.06,-815.17 -1.24,-19.44 -7.74,-38.56 -11.8,-57.83 0,-111.11 0,-222.22 0,-333.33 4.09,-20.43 10.6,-40.71 11.93,-61.32 17.76,-274.96 65.12,-544.65 143.28,-808.85 118.65,-401.01 300.16,-771.4 542.84,-1111.93 158.6,-222.54 339.88,-424.89 541.61,-609.06 6.81,-6.22 14.71,-11.24 26.94,-20.46 0,17.48 -0.01,28.36 0,39.25 0.26,313.32 0.55,626.63 0.8,939.94 0.31,378.87 0.6,757.74 0.88,1136.61 0.02,31.44 -0.48,32.03 -29.78,36.24 -117.09,16.79 -231.02,45.18 -339.05,94.24 -85.12,38.64 -167.1,82.18 -238.57,144.21 -141.08,122.44 -222.29,280.79 -274.92,455.75 -38.23,127.09 -56.06,258.18 -63.82,390.5 -1.39,23.75 -5.44,48.18 1.66,71.4 46.14,6.6 504.53,4.46 529.54,-2.18 7.8,-44.71 13.31,-89.93 23.79,-133.96 41.58,-174.68 148.69,-291.94 316.75,-353.28 138,-50.37 280.85,-53.75 424.44,-36.21 110.43,13.5 218.37,40.13 323.9,75.72 166.33,56.11 329.3,120.79 489.2,193.22 25.03,11.35 50.17,22.47 77.36,34.65 88.85,-196.94 176.59,-391.49 265.06,-587.56 -308.83,-143.52 -623.44,-257.02 -953.65,-334.39 0,-13.19 0,-25.18 0,-37.18 0.03,-462.19 0.13,-924.39 0.06,-1386.6 -0.06,-372.19 -0.03,-744.4 -1.02,-1116.61 -0.07,-27.37 7.09,-44.3 31.53,-58.97 370.89,-222.48 767.21,-381.28 1188.8,-477.26 9.28,-2.13 18.94,-2.53 32.48,-4.25 0,16.79 0,29.92 0,43.03 -0.24,1038.83 -0.75,2077.67 -0.43,3116.5 0.04,163.25 1.57,326.47 25.15,488.8 15.82,108.92 46.94,211.47 97.78,309.33 96.39,185.61 243.5,307.18 443.93,366.29 147.02,43.35 297.54,63.93 449.89,69.2 243.18,8.39 486.5,12.89 729.78,3.54 144.28,-5.54 288.58,-11.25 432.65,-20.43 104.12,-6.63 208.17,-16.78 311.74,-29.5 125.59,-15.42 251.08,-32.71 375.83,-53.81 109.39,-18.5 217.91,-42.44 326.42,-65.74 90.08,-19.32 180.21,-39 269.28,-62.44 166.39,-43.82 332.15,-90.09 497.97,-136.06 167.97,-46.57 335.72,-93.94 503.53,-141.14 10.21,-2.87 19.96,-7.42 31.8,-11.89 -49.42,-192.71 -98,-382.22 -146.96,-573.17 -74.89,21.21 -144.67,43.74 -215.81,60.53 -158.8,37.48 -317.82,74.42 -477.64,107.32 -199.83,41.13 -402.42,55.81 -606.37,51.43 -9.89,-0.21 -19.75,-1.83 -29.63,-2.8 305.1,-71.06 530.24,-231.26 631.76,-540.64 -5.61,0.75 -8.15,0.32 -9.63,1.39 -95.92,69.99 -190.07,142.56 -288.08,209.49 -98.07,66.96 -199.6,129.01 -307.25,180.01 -70.21,33.26 -141.13,65 -211.31,98.32 -43.4,20.61 -80.63,0.81 -124.63,-13.58 42.4,-16.96 79.39,-31.18 115.93,-46.46 125.2,-52.33 243.58,-117.93 360.65,-186.11 161.61,-94.13 310.96,-205.83 458.31,-320.28 69.22,-53.78 136.36,-110.31 203.35,-166.89 19.9,-16.8 39.92,-22.42 64.39,-15.79 12.82,3.49 25.64,7.99 38.74,9.29 151.89,15.06 262.22,-102.68 254.65,-236.39 -0.33,-5.83 -2.96,-11.54 -5.64,-21.54 -34.35,34.28 -66.33,64.83 -96.64,96.98 -19.26,20.42 -41.37,25.1 -66.64,17.58 -25.5,-7.59 -50.24,-17.74 -75.72,-25.33 -31.39,-9.36 -47.21,-31.13 -53.3,-61.76 -4.13,-20.67 -5.86,-42.2 -12.92,-61.81 -8.96,-24.9 -2.25,-42.5 16.25,-58.94 26.54,-23.59 52.59,-47.78 78.28,-72.26 7.28,-6.94 18.85,-12.51 15.26,-27.93 -19.47,0 -38.22,-0.58 -56.93,0.1 -78.99,2.9 -190,77.46 -203.57,173.86 -5.31,37.71 -9.89,75.46 1.11,112.26 7.94,26.56 0.49,43.56 -20.44,60.1 -114.15,90.14 -225.56,183.89 -341.9,271.04 -91.42,68.48 -187.15,131.53 -283.72,192.64 -77.75,49.21 -159.39,92.33 -239.72,137.42 -101.87,57.19 -207.5,106.09 -319.36,140.72 -38.94,12.06 -55,6.21 -82.57,-32.06 17.6,-5.4 34.68,-9.28 50.69,-15.79 106.93,-43.44 215.82,-83.02 316.2,-140.64 115.47,-66.28 230.89,-133.02 342.89,-204.91 160.91,-103.25 309.56,-223.53 458.67,-342.87 12.74,-10.19 24.98,-21 37.59,-31.64 -12.75,-30.71 -24.35,-58.67 -36.54,-88.06 -474.28,193.85 -944.11,387.12 -1417.43,575.89 -8.82,-12.8 -16.53,-22.21 -22.32,-32.7 -12.03,-21.82 -9.56,-27.87 13.32,-37.61 37.6,-16.02 75.24,-31.96 110.99,-47.14 -19.67,-75.59 -38.82,-149.13 -58.9,-226.29 -43.02,9.25 -88.02,18.93 -136.42,29.33 4.01,45.57 7.86,89.39 11.72,133.22 -20.8,-60.41 -30.25,-122.52 -33.18,-185.65 -3.11,-67.18 9,-132.79 22.67,-198.07 18.87,-90.15 51.18,-175.28 106.18,-249.58 88.14,-119.07 203.43,-200.64 347.53,-238.46 228.67,-60.02 455.03,-56.32 677.07,30.19 74.6,29.07 145.71,65.19 210.2,113.94 66.86,50.54 125.37,109.46 181.4,171.25 15.37,16.96 31.22,33.47 47.86,51.28 134.54,-138.96 266.25,-275 398.18,-411.26 -5.88,-9.58 -10.3,-17.22 -15.13,-24.61 -53.68,-82.26 -118.47,-155.14 -187.81,-224.42 -57.63,-57.56 -119.89,-109.65 -187.85,-153.9 -161.4,-105.1 -338.42,-171.04 -528.92,-198.85 -181.61,-26.5 -363.04,-26.87 -543.47,11.64 -98.11,20.94 -193.79,49.83 -284.15,93.47 -153.62,74.18 -288.96,173.22 -403.46,300.64 -117.32,130.51 -207.82,277.01 -266,442.46 -74.25,211.14 -92.79,428.67 -68.1,650.47 20.03,179.91 83.78,344.76 175.82,498.86 84.5,141.47 192.36,263.35 322.41,365.15 6.08,4.78 10.58,11.57 20.12,22.21 -31.89,6.64 -57.17,6.12 -82.25,6.04 -284.42,-0.98 -568.85,-1.33 -853.25,-3.78 -108.69,-0.94 -217.65,0.46 -325.19,-22.64 -64.13,-13.78 -123.08,-37.48 -176.29,-75.15 -44.6,-31.59 -79.36,-72.29 -94.56,-125.39 -20.5,-71.6 -35.69,-144.52 -35.78,-219.61 -0.06,-38.89 0.7,-77.78 0.67,-116.65 -0.31,-398.86 -0.82,-797.72 -1.04,-1196.58 -0.39,-686.61 -0.63,-1373.24 -0.83,-2059.86 -0.01,-12.89 1.11,-25.76 1.78,-40 24.58,-2.15 45.57,-3.6 66.46,-5.9 22.97,-2.53 45.88,-5.85 68.81,-8.82 120,0 240,0 360,0 16.35,2.43 32.61,6.11 49.03,7.11 433.49,26.36 853.35,115.42 1257.71,274.64 565.24,222.56 1056.35,554.58 1466.74,1003.06 415.42,453.97 705,977.93 862.64,1573.64 60.39,228.22 101.37,459.68 112.15,695.96 0.49,10.8 3.32,21.51 5.07,32.26z"/>
  <path class="fil0 str0" d="M971.13 6462.56c-2.48,0.2 -4.98,0.39 -7.47,0.58 -3.5,13.86 -7.32,27.75 7.47,45.38 0,-19.04 0,-32.5 0,-45.96zm26.24 50.96c-21.56,0 -38.5,0 -57.86,0 0,-22.67 0,-43.14 0,-68.11 17.16,-1.76 35.93,-3.69 57.86,-5.94 0,25.82 0,48.03 0,74.06z"/>
  <path class="fil0 str0" d="M812.39 6469.44c1.3,10.51 4.2,21.18 3.28,31.51 -0.54,5.96 -7.25,11.38 -11.19,17.04 -4.66,-4.89 -12.86,-9.46 -13.33,-14.72 -1.65,-18.32 -0.64,-36.88 -0.64,-57.82 21.07,0 39.16,0 60.17,0 0,19.64 0.78,38.94 -0.6,58.1 -0.31,4.22 -8.28,7.9 -12.72,11.82 -3.93,-4.53 -9.92,-8.53 -11.22,-13.71 -1.49,-5.91 2.48,-13.07 1.66,-19.36 -0.71,-5.35 -4.85,-10.25 -7.48,-15.36 -2.64,0.83 -5.28,1.67 -7.92,2.5z"/>
 </g>
</svg>
